<svg width="131px" height="62px" viewBox="0 0 131 62" version="1.1" xmlns="http://www.w3.org/2000/svg" xmlns:xlink="http://www.w3.org/1999/xlink">
    <title>Group 13</title>
    <defs>
        <polygon id="path-1" points="0 0 13.3608658 0 13.3608658 19.6010407 0 19.6010407"></polygon>
        <polygon id="path-3" points="9.78969991e-15 0 13.3608658 0 13.3608658 19.6010407 9.78969991e-15 19.6010407"></polygon>
        <polygon id="path-5" points="0 0 12.8777489 0 12.8777489 19.6006823 0 19.6006823"></polygon>
        <polygon id="path-7" points="0 62 130.2 62 130.2 0 0 0"></polygon>
    </defs>
    <g id="*-Homepage-R3.1" stroke="none" stroke-width="1" fill="none" fill-rule="evenodd">
        <g id="CDT-Homepage-R3.1-Desktop" transform="translate(-655.000000, -62.000000)">
            <g id="D/Nav/Primary" transform="translate(213.000000, 40.000000)">
                <g id="Group-13" transform="translate(442.000000, 22.000000)">
                    <path d="M62.3923983,12.6355179 L63.4015758,11.0008731 L61.5460491,9.82149114 C61.8699163,9.12246538 61.8699163,8.32665144 61.8699163,7.57923159 L61.8699163,6.76728629 L59.2020375,6.76728629 L59.2020375,8.37504553 L54.0326869,5.08245497 C53.3151688,4.65407765 53.0342453,4.36729785 53.0342453,3.66827209 C53.0342453,2.52294527 53.8376508,2.49068255 55.3353131,2.49068255 C57.6220664,2.49068255 57.7097431,2.72906825 57.7097431,4.35295886 L60.3794113,4.35295886 C60.3794113,1.15357174 59.4453853,0.612274869 55.3388918,0.612274869 C51.9499163,0.612274869 50.1069149,0.994050476 50.1069149,3.6539331 C50.1069149,4.70426411 50.3878384,5.08603972 51.4721674,5.77072649 C48.7720808,5.90336215 48.3605368,7.22613397 48.3605368,8.9916221 C48.3605368,12.4473187 50.8977951,12.7179671 55.0937547,12.7179671 C57.2445195,12.7179671 59.4614892,12.6874967 60.4599307,11.3969877 L62.3923983,12.6355179 Z M58.4397864,10.1244023 C57.7222684,10.8395594 56.6576219,10.8395594 55.0937547,10.8395594 C52.3525137,10.8395594 51.2878672,10.8861611 51.2878672,8.99879159 C51.2878672,7.6330028 51.3093391,7.03076523 53.0932929,6.82284987 L58.4397864,10.1244023 Z" id="Fill-142" fill="#1A4784"></path>
                    <path d="M45.9691082,0.821265647 L45.951215,12.5218814 L23.9586609,12.5218814 C23.9586609,12.5218814 19.544404,12.5362204 19.4835671,16.3055824 C19.4925137,20.1950334 23.7743608,20.193241 23.9246638,20.193241 L63.4472035,20.2398427 L63.4472035,33.8762261 L19.4871457,33.8762261 C19.4871457,33.8762261 -0.000357864358,33.9443323 0.0175230391,16.3145442 C0.0318499278,0.00215084849 19.5390361,0.905507213 19.5032496,0.787210546 L45.9691082,0.821265647 Z" id="Fill-144" fill="#1A4784"></path>
                    <path d="M105.805102,20.1927033 L82.1252179,20.1729872 L82.1252179,12.5231361 L105.769316,12.5231361 C105.769316,12.5231361 110.183573,12.5356827 110.24441,16.3050447 C110.235463,20.1944957 105.953616,20.1927033 105.805102,20.1927033 M108.553501,0.786672834 L64.9173102,0.804596571 L64.9334141,33.8756884 L108.571394,33.8756884 C108.571394,33.8756884 128.058898,33.9437946 128.041017,16.3157989 C128.02669,0.0034055101 108.519504,0.906761874 108.553501,0.786672834" id="Fill-146" fill="#1A4784"></path>
                    <polygon id="Fill-148" fill="#1A4784" points="9.69043001 42.6918331 9.69043001 46.2263941 6.71836652 46.2263941 6.71836652 61.7107109 2.96436941 61.7107109 2.96436941 46.2263941 0.0173564214 46.2263941 0.0173564214 42.6918331"></polygon>
                    <polygon id="Fill-150" fill="#1A4784" points="17.9508341 42.6918331 17.9508341 46.2263941 14.1467359 46.2263941 14.1467359 50.3524385 17.4963463 50.3524385 17.4963463 53.8869995 14.1467359 53.8869995 14.1467359 58.1725651 18.0009351 58.1725651 18.0009351 61.7071261 10.3927388 61.7071261 10.3927388 42.6918331"></polygon>
                    <path d="M28.2392554,46.2699488 C27.7615065,46.1444827 27.3070188,46.0674106 26.8292698,46.0674106 C23.5279711,46.0674106 22.0929351,49.0696366 22.0929351,51.9947906 C22.0929351,54.8195716 23.5279711,58.298569 26.80243,58.298569 C27.2819683,58.298569 27.7615065,58.1731028 28.2392554,58.0225434 L28.2392554,61.5768206 C27.6845657,61.8026597 27.1066147,61.904825 26.501824,61.904825 C21.0837576,61.904825 18.0830649,57.013437 18.0830649,52.0198838 C18.0830649,47.3041485 21.2107994,42.462947 26.3246811,42.462947 C26.9795729,42.462947 27.6094141,42.5884132 28.2392554,42.8160446 L28.2392554,46.2699488 Z" id="Fill-152" fill="#1A4784"></path>
                    <polygon id="Fill-154" fill="#1A4784" points="33.2667128 42.6886069 33.2667128 50.1269579 37.0976508 50.1269579 37.0976508 42.6886069 40.8498586 42.6886069 40.8498586 61.7110694 37.0976508 61.7110694 37.0976508 53.6597265 33.2667128 53.6597265 33.2667128 61.7110694 29.5145051 61.7110694 29.5145051 42.6886069"></polygon>
                    <path d="M46.0893506,42.6886069 L50.8042136,54.1651759 L50.8543146,54.1149894 C50.6270707,53.206256 50.5519192,52.2240352 50.5519192,51.2382296 L50.5519192,42.6886069 L54.3059163,42.6886069 L54.3059163,61.7110694 L50.7541126,61.7110694 L46.0893506,50.2309156 L46.0392496,50.281102 L46.2146032,52.1989419 L46.241443,52.9804169 L46.241443,61.7110694 L42.4874459,61.7110694 L42.4874459,42.6886069 L46.0893506,42.6886069 Z" id="Fill-156" fill="#1A4784"></path>
                    <g id="Group-160" transform="translate(55.238153, 42.398959)">
                        <mask id="mask-2" fill="white">
                            <use xlink:href="#path-1"></use>
                        </mask>
                        <g id="Clip-159"></g>
                        <path d="M6.68132756,0 C3.32992785,0 0,2.67063687 0,9.8006996 C0,16.9325547 3.32992785,19.6013992 6.68132756,19.6013992 C10.0327273,19.6013992 13.3608658,16.9325547 13.3608658,9.8006996 C13.3608658,2.67063687 10.0327273,0 6.68132756,0 M4.01165945,9.8006996 C4.01165945,8.11228354 4.18880231,3.47541268 6.68132756,3.47541268 C9.17564214,3.47541268 9.35099567,8.11228354 9.35099567,9.8006996 C9.35099567,11.313463 9.17564214,16.1259865 6.68132756,16.1259865 C4.18880231,16.1259865 4.01165945,11.313463 4.01165945,9.8006996" id="Fill-158" fill="#1A4784" mask="url(#mask-2)"></path>
                    </g>
                    <polygon id="Fill-161" fill="#1A4784" points="73.3206811 42.6886069 73.3206811 58.1729236 77.2500317 58.1729236 77.2500317 61.7074846 69.566684 61.7074846 69.566684 42.6886069"></polygon>
                    <g id="Group-165" transform="translate(77.028514, 42.398959)">
                        <mask id="mask-4" fill="white">
                            <use xlink:href="#path-3"></use>
                        </mask>
                        <g id="Clip-164"></g>
                        <path d="M6.68132756,0 C3.32992785,0 9.78969991e-15,2.67063687 9.78969991e-15,9.8006996 C9.78969991e-15,16.9325547 3.32992785,19.6013992 6.68132756,19.6013992 C10.0327273,19.6013992 13.3608658,16.9325547 13.3608658,9.8006996 C13.3608658,2.67063687 10.0327273,0 6.68132756,0 M4.01165945,9.8006996 C4.01165945,8.11228354 4.18701299,3.47541268 6.68132756,3.47541268 C9.17385281,3.47541268 9.35099567,8.11228354 9.35099567,9.8006996 C9.35099567,11.313463 9.17385281,16.1259865 6.68132756,16.1259865 C4.18701299,16.1259865 4.01165945,11.313463 4.01165945,9.8006996" id="Fill-163" fill="#1A4784" mask="url(#mask-4)"></path>
                    </g>
                    <g id="Group-168" transform="translate(90.934407, 42.399318)">
                        <mask id="mask-6" fill="white">
                            <use xlink:href="#path-5"></use>
                        </mask>
                        <g id="Clip-167"></g>
                        <path d="M12.8777489,8.72527536 L12.8777489,10.2147379 C12.8777489,14.2422017 11.8954113,19.6013992 6.78152958,19.6013992 C1.66406926,19.6013992 0,14.1167356 0,9.91182678 C0,5.52051112 1.41356421,0 6.78152958,0 C9.67844156,0 11.5697547,1.81388222 12.3749495,4.50961233 L8.72294372,5.92379521 C8.54580087,4.96487526 8.24161616,3.47541268 6.80658009,3.47541268 C4.2621645,3.32485329 4.00987013,8.01908011 4.00987013,9.81145385 C4.00987013,11.7812726 4.13512266,16.1259865 6.90857143,16.1259865 C8.82314574,16.1259865 9.12554113,13.5646845 9.12554113,12.2598364 L6.73142857,12.2598364 L6.73142857,8.72527536 L12.8777489,8.72527536 Z" id="Fill-166" fill="#1A4784" mask="url(#mask-6)"></path>
                    </g>
                    <mask id="mask-8" fill="white">
                        <use xlink:href="#path-7"></use>
                    </mask>
                    <g id="Clip-170"></g>
                    <polygon id="Fill-169" fill="#1A4784" mask="url(#mask-8)" points="104.784473 61.7114278 108.53847 61.7114278 108.53847 42.6889653 104.784473 42.6889653"></polygon>
                    <polygon id="Fill-171" fill="#1A4784" mask="url(#mask-8)" points="117.756877 42.6918331 117.756877 46.2263941 113.952779 46.2263941 113.952779 50.3524385 117.304179 50.3524385 117.304179 53.8869995 113.952779 53.8869995 113.952779 58.1725651 117.806978 58.1725651 117.806978 61.7071261 110.200571 61.7071261 110.200571 42.6918331"></polygon>
                    <path d="M126.892618,46.9867191 C126.139313,46.3325027 125.210655,45.7786592 124.181795,45.7786592 C123.015157,45.7786592 122.277957,46.4830621 122.277957,47.6409355 C122.277957,50.7614582 127.996629,50.9389032 127.996629,56.0722616 C127.996629,59.4473013 126.064162,61.9978492 122.53204,61.9978492 C121.474551,61.9978492 120.170136,61.6698448 119.318418,61.0371368 L119.318418,57.4559741 C120.195186,58.0617964 121.048693,58.4632881 122.150915,58.4632881 C123.369443,58.4632881 124.333887,57.6585123 124.333887,56.3984736 C124.333887,54.9394814 123.16546,54.3856379 122.100814,53.6310485 C119.944681,52.1720563 118.613426,50.7614582 118.613426,47.9940331 C118.613426,44.9971842 120.345489,42.3982423 123.571636,42.3982423 C124.784797,42.3982423 125.863758,42.7262467 126.892618,43.332069 L126.892618,46.9867191 Z" id="Fill-172" fill="#1A4784" mask="url(#mask-8)"></path>
                    <path d="M128.623965,60.5408285 L128.736693,60.5408285 C128.879838,60.5408285 128.976462,60.485265 128.976462,60.3884768 C128.976462,60.2845191 128.886996,60.2271631 128.752797,60.2271631 C128.704485,60.2271631 128.656173,60.236125 128.623965,60.236125 L128.623965,60.5408285 Z M128.607861,61.2703247 L128.216,61.2703247 L128.216,59.9959469 C128.303677,59.9798156 128.511238,59.9547223 128.776058,59.9547223 C129.064139,59.9547223 129.19297,59.9959469 129.287804,60.0515105 C129.368323,60.1070741 129.423792,60.2038623 129.423792,60.3329132 C129.423792,60.4601717 129.305697,60.5730913 129.128554,60.6214854 L129.128554,60.6358243 C129.2717,60.6860108 129.352219,60.7810066 129.391584,60.9656211 C129.432739,61.1502356 129.456,61.2237229 129.479261,61.2703247 L129.040877,61.2703247 C128.999723,61.2237229 128.976462,61.1108034 128.953201,60.9978838 C128.92815,60.8688329 128.863734,60.8043075 128.736693,60.8043075 L128.607861,60.8043075 L128.607861,61.2703247 Z M127.782984,60.6214854 C127.782984,61.1986297 128.207053,61.655685 128.785004,61.655685 C129.361166,61.655685 129.785235,61.1986297 129.785235,60.6125235 C129.785235,60.0425486 129.361166,59.5783238 128.776058,59.5783238 C128.207053,59.5783238 127.782984,60.0425486 127.782984,60.6214854 L127.782984,60.6214854 Z M130.200358,60.6125235 C130.200358,61.3832442 129.577674,61.9998208 128.785004,61.9998208 C127.990545,61.9998208 127.358915,61.3832442 127.358915,60.6125235 C127.358915,59.8507646 127.990545,59.2323957 128.785004,59.2323957 C129.577674,59.2323957 130.200358,59.8507646 130.200358,60.6125235 L130.200358,60.6125235 Z" id="Fill-173" fill="#1A4784" mask="url(#mask-8)"></path>
                </g>
            </g>
        </g>
    </g>
</svg>